<?xml version="1.0" encoding="UTF-8"?>
<svg width="305px" height="69px" viewBox="0 0 305 69" version="1.1" xmlns="http://www.w3.org/2000/svg" xmlns:xlink="http://www.w3.org/1999/xlink">
    <!-- Generator: Sketch 53.2 (72643) - https://sketchapp.com -->
    <title>Logo White Transparent Bg</title>
    <desc>Created with Sketch.</desc>
    <defs>
        <polygon id="path-1" points="0 0.12696103 70.8828024 0.12696103 70.8828024 68.8652344 0 68.8652344"></polygon>
    </defs>
    <g id="Logo-White-Transparent-Bg" stroke="none" stroke-width="1" fill="none" fill-rule="evenodd">
        <g id="Group-2">
            <g id="black-mochimo-logo">
                <g id="Group" transform="translate(86.000000, 14.000000)" fill="#FFFFFF">
                    <path d="M31.8791753,0.9598338 L31.8791753,32.634349 L27.7701031,32.634349 L27.7701031,7.35872576 L17.7909278,32.634349 L14.1334021,32.634349 L4.10907216,7.4501385 L4.10907216,32.634349 L-1.77635684e-15,32.634349 L-1.77635684e-15,0.9598338 L4.92185567,0.9598338 L16.0298969,27.5609418 L26.9573196,0.9598338 L31.8791753,0.9598338 Z M61.0264948,2.10249307 C63.3895994,3.50416213 65.2484468,5.46189879 66.6030928,7.97576177 C67.9577387,10.4896248 68.6350515,13.3310091 68.6350515,16.5 C68.6350515,19.6689909 67.9577387,22.5103752 66.6030928,25.0242382 C65.2484468,27.5381012 63.3895994,29.4958379 61.0264948,30.8975069 C58.6633902,32.299176 56.0068189,33 53.056701,33 C50.1065832,33 47.4349604,32.299176 45.0417526,30.8975069 C42.6485447,29.4958379 40.7746459,27.5381012 39.42,25.0242382 C38.0653541,22.5103752 37.3880412,19.6689909 37.3880412,16.5 C37.3880412,13.3310091 38.0653541,10.4896248 39.42,7.97576177 C40.7746459,5.46189879 42.6485447,3.50416213 45.0417526,2.10249307 C47.4349604,0.70082402 50.1065832,4.4408921e-16 53.056701,4.4408921e-16 C56.0068189,4.4408921e-16 58.6633902,0.70082402 61.0264948,2.10249307 L61.0264948,2.10249307 Z M47.1640206,5.41620499 C45.4330841,6.43698571 44.0784585,7.89957497 43.1001031,9.80401662 C42.1217477,11.7084583 41.6325773,13.9404304 41.6325773,16.5 C41.6325773,19.0290985 42.1217477,21.253453 43.1001031,23.1731302 C44.0784585,25.0928074 45.4330841,26.5630143 47.1640206,27.583795 C48.8949571,28.6045757 50.8591643,29.1149584 53.056701,29.1149584 C55.2241345,29.1149584 57.1732903,28.5969581 58.9042268,27.5609418 C60.6351633,26.5249256 61.9897889,25.0547187 62.9681443,23.150277 C63.9464997,21.2458354 64.4356701,19.0290985 64.4356701,16.5 C64.4356701,13.9404304 63.9464997,11.7084583 62.9681443,9.80401662 C61.9897889,7.89957497 60.6351633,6.43698571 58.9042268,5.41620499 C57.1732903,4.39542426 55.2241345,3.88504155 53.056701,3.88504155 C50.8591643,3.88504155 48.8949571,4.39542426 47.1640206,5.41620499 L47.1640206,5.41620499 Z M97.8952577,2.99376731 C100.42393,4.92868003 102.169892,7.5720054 103.133196,10.9238227 L98.7983505,10.9238227 C97.9855629,8.79084806 96.6760915,7.09211159 94.8698969,5.82756233 C93.0637023,4.56301307 90.8511471,3.93074792 88.2321649,3.93074792 C86.1550412,3.93074792 84.2961938,4.44113063 82.655567,5.46191136 C81.0149403,6.48269208 79.7205202,7.94528134 78.772268,9.84972299 C77.8240159,11.7541646 77.3498969,13.9861368 77.3498969,16.5457064 C77.3498969,19.0748049 77.8240159,21.2839241 78.772268,23.1731302 C79.7205202,25.0623363 81.0149403,26.5173079 82.655567,27.5380886 C84.2961938,28.5588694 86.1550412,29.0692521 88.2321649,29.0692521 C90.8511471,29.0692521 93.0637023,28.4369869 94.8698969,27.1724377 C96.6760915,25.9078884 97.9855629,24.2091519 98.7983505,22.0761773 L103.133196,22.0761773 C102.169892,25.4279946 100.42393,28.07132 97.8952577,30.0062327 C95.3665853,31.9411454 92.160638,32.9085873 88.2773196,32.9085873 C85.2970985,32.9085873 82.6631042,32.2153809 80.3752577,30.8289474 C78.0874112,29.4425138 76.3038208,27.5076301 75.024433,25.0242382 C73.7450451,22.5408463 73.1053608,19.7146973 73.1053608,16.5457064 C73.1053608,13.3462444 73.7450451,10.4972424 75.024433,7.99861496 C76.3038208,5.49998751 78.0874112,3.55748616 80.3752577,2.17105263 C82.6631042,0.78461911 85.2970985,0.09141274 88.2773196,0.09141274 C92.160638,0.09141274 95.3665853,1.05885459 97.8952577,2.99376731 Z M133.070722,0.41135734 L133.070722,32.634349 L128.916495,32.634349 L128.916495,17.734072 L112.751134,17.734072 L112.751134,32.634349 L108.642062,32.634349 L108.642062,0.41135734 L112.751134,0.41135734 L112.751134,14.3518006 L128.916495,14.3518006 L128.916495,0.41135734 L133.070722,0.41135734 Z M143.772371,0.41135734 L143.772371,32.634349 L139.663299,32.634349 L139.663299,0.41135734 L143.772371,0.41135734 Z M182.244124,0.9598338 L182.244124,32.634349 L178.135052,32.634349 L178.135052,7.35872576 L168.155876,32.634349 L164.498351,32.634349 L154.474021,7.4501385 L154.474021,32.634349 L150.364948,32.634349 L150.364948,0.9598338 L155.286804,0.9598338 L166.394845,27.5609418 L177.322268,0.9598338 L182.244124,0.9598338 Z M211.391443,2.10249307 C213.754548,3.50416213 215.613395,5.46189879 216.968041,7.97576177 C218.322687,10.4896248 219,13.3310091 219,16.5 C219,19.6689909 218.322687,22.5103752 216.968041,25.0242382 C215.613395,27.5381012 213.754548,29.4958379 211.391443,30.8975069 C209.028339,32.299176 206.371767,33 203.421649,33 C200.471532,33 197.799909,32.299176 195.406701,30.8975069 C193.013493,29.4958379 191.139594,27.5381012 189.784948,25.0242382 C188.430303,22.5103752 187.75299,19.6689909 187.75299,16.5 C187.75299,13.3310091 188.430303,10.4896248 189.784948,7.97576177 C191.139594,5.46189879 193.013493,3.50416213 195.406701,2.10249307 C197.799909,0.70082402 200.471532,4.4408921e-16 203.421649,4.4408921e-16 C206.371767,4.4408921e-16 209.028339,0.70082402 211.391443,2.10249307 Z M197.528969,5.41620499 C195.798033,6.43698571 194.443407,7.89957497 193.465052,9.80401662 C192.486696,11.7084583 191.997526,13.9404304 191.997526,16.5 C191.997526,19.0290985 192.486696,21.253453 193.465052,23.1731302 C194.443407,25.0928074 195.798033,26.5630143 197.528969,27.583795 C199.259906,28.6045757 201.224113,29.1149584 203.421649,29.1149584 C205.589083,29.1149584 207.538239,28.5969581 209.269175,27.5609418 C211.000112,26.5249256 212.354737,25.0547187 213.333093,23.150277 C214.311448,21.2458354 214.800619,19.0290985 214.800619,16.5 C214.800619,13.9404304 214.311448,11.7084583 213.333093,9.80401662 C212.354737,7.89957497 211.000112,6.43698571 209.269175,5.41620499 C207.538239,4.39542426 205.589083,3.88504155 203.421649,3.88504155 C201.224113,3.88504155 199.259906,4.39542426 197.528969,5.41620499 Z" id="Shape"></path>
                </g>
                <g id="Clipped">
                    <mask id="mask-2" fill="white">
                        <use xlink:href="#path-1"></use>
                    </mask>
                    <g id="Shape"></g>
                    <path d="M58.3165049,55.9624496 C57.5306796,56.7575668 55.448932,58.4961781 54.4149515,59.237389 C50.9407767,61.7169418 47.0667961,63.4419418 42.7378641,64.4258656 C40.0357282,65.0323109 39.1396117,65.1130355 35.2932039,65.1130355 C32.1361165,65.0996937 31.4192233,65.0591293 29.9578641,64.8032094 C23.6299029,63.6846547 18.0464078,60.908348 13.2487379,56.5284652 L12.104466,55.4907699 L12.5732039,55.4369984 C12.8213592,55.4099105 23.3541748,55.3696156 35.9825243,55.3696156 L58.9231068,55.3425277 L58.3165049,55.9624496 Z M53.656699,17.7026234 L54.1530097,18.214598 L54.2357282,27.8503402 C54.2770874,33.1466293 54.3598058,40.6530746 54.401165,44.5209828 L54.4838835,51.5690902 L48.8452427,51.5690902 L43.1928155,51.5690902 L43.1100971,43.9819203 C43.0549515,39.8175277 43.0135922,32.3112172 43.0135922,27.3112777 L43.0135922,18.2280746 L43.5236893,17.7159652 L44.0337864,17.2038558 L48.5970874,17.2038558 L53.1603883,17.2038558 L53.656699,17.7026234 Z M39.3464078,17.7294418 L39.8565049,18.2416859 L39.9392233,34.9121937 L40.0219417,51.5690902 L35.1139806,51.5690902 L30.192233,51.5690902 L30.192233,34.8985824 L30.192233,18.2280746 L30.7023301,17.7159652 L31.2124272,17.2038558 L35.0174757,17.2038558 L38.8225243,17.2038558 L39.3464078,17.7294418 Z M26.676699,17.7700062 L27.2005825,18.3358871 L27.1178641,21.9610824 C27.0627184,23.969225 27.0213592,31.4487172 27.0213592,38.5912953 L27.0213592,51.5690902 L21.9066019,51.5690902 L16.7780583,51.5690902 L16.8745631,34.8852406 L16.9848544,18.214598 L17.481165,17.7026234 L17.9774757,17.2038558 L22.0720388,17.2038558 L26.1666019,17.2038558 L26.676699,17.7700062 Z M32.3980583,4.56297498 C32.3153398,4.73803553 31.4330097,6.69213709 30.4128155,8.91576991 L28.5654369,12.9587387 L26.4561165,13.039598 C25.2842718,13.0935043 22.7337864,13.133934 20.7761165,13.1474105 C17.2467961,13.1608871 17.2192233,13.1608871 16.5161165,13.5112777 C16.1300971,13.6999496 15.4683495,14.1716293 15.0547573,14.548973 C13.6899029,15.8159047 13.8415534,13.902098 13.6623301,33.2948715 L13.4968932,50.3966293 L12.9867961,50.9761215 L12.476699,51.5557484 L10.684466,51.5690902 L8.8784466,51.5690902 L8.17533981,50.3832875 C5.26640777,45.5854965 3.7223301,40.2622543 3.7223301,35.087389 C3.7361165,30.0202015 4.56330097,26.0849105 6.43825243,22.1364125 C9.69184466,15.3171371 14.8479612,10.290514 21.8514563,7.06948084 C25.0636893,5.60053553 29.5718447,4.34721522 31.8741748,4.27983241 C32.5083495,4.26635584 32.5221359,4.27983241 32.3980583,4.56297498 Z M38.9879612,4.27983241 C44.5300971,4.85932459 50.2100971,7.04252772 54.6631068,10.3038558 C57.172233,12.1366683 60.1500971,15.2094594 61.9285437,17.7968246 C67.2363107,25.545848 68.5735922,35.343309 65.5405825,44.2647933 C64.878835,46.1919418 63.5691262,49.048973 62.6730097,50.5313949 L62.107767,51.4343246 L60.4533981,51.4343246 L58.7852427,51.4343246 L58.22,50.8549672 L57.6685437,50.2888168 L57.5168932,33.2006703 L57.3652427,16.1122543 L57.0205825,15.5192855 C56.5794175,14.8051625 55.7935922,14.1313344 54.7596117,13.5922719 L53.9737864,13.187975 L43.3031068,13.1205922 C37.4438835,13.0800277 32.6186408,13.0126449 32.591068,12.9858265 C32.5083495,12.9048324 33.2390291,11.0720199 34.5625243,7.97241053 C35.1691262,6.55737147 35.7757282,5.12885584 35.9135922,4.76512342 L36.1617476,4.13159022 L36.9062136,4.13159022 C37.3060194,4.13159022 38.2434951,4.19897303 38.9879612,4.27983241 Z M32.6737864,0.22338709 C23.161165,0.95112147 14.3102913,5.41186366 8.17533981,12.5544418 C3.88776699,17.5542465 1.00640777,23.969225 0.20679612,30.2761215 C-0.06893204,32.4459828 -0.06893204,36.4619984 0.20679612,38.6315902 C2.04038835,53.0919418 13.0419417,64.9108871 27.5728155,68.0645375 C30.3438835,68.6573715 32.2601942,68.8595199 35.2242718,68.8731312 C38.1883495,68.8731312 39.9116505,68.7114125 42.531068,68.1856918 C52.8846602,66.1104359 61.5425243,59.8571762 66.7537864,50.6931137 C68.7666019,47.1622543 70.2141748,42.6476058 70.7242718,38.362059 C70.9586408,36.3676625 70.931068,32.1764515 70.6553398,30.2087387 C69.3594175,20.7212387 64.3549515,12.4601058 56.4553398,6.75951991 C53.6291262,4.71108241 48.8038835,2.46049647 45.0815534,1.43627772 C41.2075728,0.38524061 36.5339806,-0.07309728 32.6737864,0.22338709 Z" id="Shape" fill="#FFFFFF" mask="url(#mask-2)"></path>
                </g>
            </g>
            <path d="M110.686461,51.72 L115.614461,51.72 C116.8198,51.72 117.758457,52.0213303 118.430461,52.624 C119.102464,53.2266697 119.438461,54.0719946 119.438461,55.16 C119.438461,56.2480054 119.102464,57.095997 118.430461,57.704 C117.758457,58.312003 116.8198,58.616 115.614461,58.616 L112.750461,58.616 L112.750461,63 L110.686461,63 L110.686461,51.72 Z M115.358461,57.032 C116.777134,57.032 117.486461,56.4133395 117.486461,55.176 C117.486461,54.5466635 117.310462,54.0800015 116.958461,53.776 C116.606459,53.4719985 116.073131,53.32 115.358461,53.32 L112.750461,53.32 L112.750461,57.032 L115.358461,57.032 Z M124.965845,63.128 C124.165841,63.128 123.464515,62.9626683 122.861845,62.632 C122.259176,62.3013317 121.792514,61.8266698 121.461845,61.208 C121.131177,60.5893302 120.965845,59.8693374 120.965845,59.048 C120.965845,58.2266626 121.131177,57.5093364 121.461845,56.896 C121.792514,56.2826636 122.259176,55.8106683 122.861845,55.48 C123.464515,55.1493317 124.165841,54.984 124.965845,54.984 C125.765849,54.984 126.467176,55.1493317 127.069845,55.48 C127.672515,55.8106683 128.13651,56.2826636 128.461845,56.896 C128.78718,57.5093364 128.949845,58.2266626 128.949845,59.048 C128.949845,59.8693374 128.78718,60.5893302 128.461845,61.208 C128.13651,61.8266698 127.672515,62.3013317 127.069845,62.632 C126.467176,62.9626683 125.765849,63.128 124.965845,63.128 Z M124.949845,61.576 C125.600515,61.576 126.09651,61.3626688 126.437845,60.936 C126.77918,60.5093312 126.949845,59.8800042 126.949845,59.048 C126.949845,58.2266626 126.77918,57.6000022 126.437845,57.168 C126.09651,56.7359978 125.605849,56.52 124.965845,56.52 C124.325842,56.52 123.832514,56.7359978 123.485845,57.168 C123.139177,57.6000022 122.965845,58.2266626 122.965845,59.048 C122.965845,59.8800042 123.13651,60.5093312 123.477845,60.936 C123.81918,61.3626688 124.309842,61.576 124.949845,61.576 Z M134.09323,63.128 C133.399893,63.128 132.762566,63.0426675 132.18123,62.872 C131.599894,62.7013325 131.106565,62.4560016 130.70123,62.136 L131.26123,60.744 C132.093234,61.352003 133.047891,61.656 134.12523,61.656 C134.583899,61.656 134.933229,61.5813341 135.17323,61.432 C135.413231,61.2826659 135.53323,61.0693347 135.53323,60.792 C135.53323,60.5573322 135.450564,60.3760006 135.28523,60.248 C135.119896,60.1199994 134.823899,60.0026672 134.39723,59.896 L133.11723,59.608 C132.391893,59.4479992 131.853232,59.1866685 131.50123,58.824 C131.149228,58.4613315 130.97323,57.9920029 130.97323,57.416 C130.97323,56.9359976 131.109229,56.5120018 131.38123,56.144 C131.653231,55.7759982 132.031894,55.4906677 132.51723,55.288 C133.002566,55.0853323 133.565227,54.984 134.20523,54.984 C134.759899,54.984 135.295894,55.0693325 135.81323,55.24 C136.330566,55.4106675 136.786561,55.6506651 137.18123,55.96 L136.62123,57.32 C135.810559,56.7333304 134.999901,56.44 134.18923,56.44 C133.751895,56.44 133.410565,56.5199992 133.16523,56.68 C132.919895,56.8400008 132.79723,57.0639986 132.79723,57.352 C132.79723,57.5653344 132.874563,57.7413326 133.02923,57.88 C133.183897,58.0186674 133.431895,58.125333 133.77323,58.2 L135.10123,58.504 C135.879901,58.6746675 136.450562,58.9439982 136.81323,59.312 C137.175899,59.6800018 137.35723,60.1626637 137.35723,60.76 C137.35723,61.485337 137.0639,62.0613312 136.47723,62.488 C135.89056,62.9146688 135.095902,63.128 134.09323,63.128 Z M143.508615,61.624 C143.743283,61.624 143.988613,61.6080002 144.244615,61.576 L144.148615,63.064 C143.828613,63.0960002 143.535283,63.112 143.268615,63.112 C142.169943,63.112 141.359284,62.8586692 140.836615,62.352 C140.313945,61.8453308 140.052615,61.0906717 140.052615,60.088 L140.052615,56.68 L138.548615,56.68 L138.548615,55.176 L140.052615,55.176 L140.052615,52.84 L142.052615,52.84 L142.052615,55.176 L144.116615,55.176 L144.116615,56.68 L142.052615,56.68 L142.052615,60.056 C142.052615,61.1013386 142.537943,61.624 143.508615,61.624 Z M145.883999,59.512 L145.883999,57.928 L150.651999,57.928 L150.651999,59.512 L145.883999,59.512 Z M161.011384,62.632 C161.267385,62.706667 161.491383,62.8266658 161.683384,62.992 C161.875385,63.1573342 162.06205,63.3893318 162.243384,63.688 L163.395384,65.56 L161.667384,66.392 L160.115384,63.88 C159.816716,63.3893309 159.310054,63.144 158.595384,63.144 C157.496712,63.144 156.544722,62.9093357 155.739384,62.44 C154.934047,61.9706643 154.31272,61.298671 153.875384,60.424 C153.438049,59.549329 153.219384,58.5253392 153.219384,57.352 C153.219384,56.1786608 153.438049,55.1573377 153.875384,54.288 C154.31272,53.4186623 154.934047,52.7493357 155.739384,52.28 C156.544722,51.8106643 157.496712,51.576 158.595384,51.576 C159.68339,51.576 160.630047,51.8106643 161.435384,52.28 C162.240722,52.7493357 162.862049,53.4186623 163.299384,54.288 C163.73672,55.1573377 163.955384,56.1786608 163.955384,57.352 C163.955384,58.6320064 163.702053,59.7279954 163.195384,60.64 C162.688715,61.5520046 161.960722,62.2159979 161.011384,62.632 Z M158.595384,61.496 C159.630056,61.496 160.438048,61.1386702 161.019384,60.424 C161.60072,59.7093298 161.891384,58.68534 161.891384,57.352 C161.891384,56.01866 161.60072,54.9973369 161.019384,54.288 C160.438048,53.5786631 159.630056,53.224 158.595384,53.224 C157.550046,53.224 156.73672,53.5786631 156.155384,54.288 C155.574048,54.9973369 155.283384,56.01866 155.283384,57.352 C155.283384,58.68534 155.574048,59.7093298 156.155384,60.424 C156.73672,61.1386702 157.550046,61.496 158.595384,61.496 Z M173.658769,55.176 L173.658769,63 L171.706769,63 L171.706769,61.8 C171.461434,62.2266688 171.130771,62.5546655 170.714769,62.784 C170.298767,63.0133345 169.829438,63.128 169.306769,63.128 C167.386759,63.128 166.426769,62.0506774 166.426769,59.896 L166.426769,55.176 L168.426769,55.176 L168.426769,59.912 C168.426769,60.4666694 168.538768,60.877332 168.762769,61.144 C168.98677,61.410668 169.338766,61.544 169.818769,61.544 C170.373438,61.544 170.818767,61.3600018 171.154769,60.992 C171.490771,60.6239982 171.658769,60.136003 171.658769,59.528 L171.658769,55.176 L173.658769,55.176 Z M179.714154,54.984 C180.812826,54.984 181.628818,55.250664 182.162154,55.784 C182.69549,56.317336 182.962154,57.1386611 182.962154,58.248 L182.962154,63 L181.058154,63 L181.058154,61.8 C180.876819,62.2160021 180.591489,62.5413322 180.202154,62.776 C179.812818,63.0106678 179.362156,63.128 178.850154,63.128 C178.327484,63.128 177.852822,63.0213344 177.426154,62.808 C176.999485,62.5946656 176.663488,62.3013352 176.418154,61.928 C176.172819,61.5546648 176.050154,61.138669 176.050154,60.68 C176.050154,60.1039971 176.196819,59.6506683 176.490154,59.32 C176.783488,58.9893317 177.260817,58.7493341 177.922154,58.6 C178.58349,58.4506659 179.495481,58.376 180.658154,58.376 L181.058154,58.376 L181.058154,58.008 C181.058154,57.474664 180.943488,57.0906678 180.714154,56.856 C180.484819,56.6213322 180.10349,56.504 179.570154,56.504 C179.154151,56.504 178.719489,56.5759993 178.266154,56.72 C177.812818,56.8640007 177.367489,57.0639987 176.930154,57.32 L176.370154,55.944 C176.807489,55.6666653 177.335484,55.4373342 177.954154,55.256 C178.572823,55.0746658 179.159484,54.984 179.714154,54.984 Z M179.250154,61.688 C179.78349,61.688 180.218152,61.5093351 180.554154,61.152 C180.890155,60.7946649 181.058154,60.3333362 181.058154,59.768 L181.058154,59.432 L180.770154,59.432 C180.055483,59.432 179.500822,59.4639997 179.106154,59.528 C178.711485,59.5920003 178.428821,59.7039992 178.258154,59.864 C178.087486,60.0240008 178.002154,60.2426653 178.002154,60.52 C178.002154,60.861335 178.119486,61.1413322 178.354154,61.36 C178.588821,61.5786678 178.887485,61.688 179.250154,61.688 Z M190.153538,54.984 C191.09221,54.984 191.790869,55.250664 192.249538,55.784 C192.708207,56.317336 192.937538,57.1226613 192.937538,58.2 L192.937538,63 L190.937538,63 L190.937538,58.312 C190.937538,57.703997 190.822873,57.2613347 190.593538,56.984 C190.364204,56.7066653 190.004207,56.568 189.513538,56.568 C188.937535,56.568 188.476207,56.7493315 188.129538,57.112 C187.78287,57.4746685 187.609538,57.959997 187.609538,58.568 L187.609538,63 L185.609538,63 L185.609538,55.176 L187.561538,55.176 L187.561538,56.344 C187.828206,55.9066645 188.185536,55.5706678 188.633538,55.336 C189.08154,55.1013322 189.588202,54.984 190.153538,54.984 Z M199.584923,61.624 C199.819591,61.624 200.064922,61.6080002 200.320923,61.576 L200.224923,63.064 C199.904921,63.0960002 199.611591,63.112 199.344923,63.112 C198.246251,63.112 197.435592,62.8586692 196.912923,62.352 C196.390254,61.8453308 196.128923,61.0906717 196.128923,60.088 L196.128923,56.68 L194.624923,56.68 L194.624923,55.176 L196.128923,55.176 L196.128923,52.84 L198.128923,52.84 L198.128923,55.176 L200.192923,55.176 L200.192923,56.68 L198.128923,56.68 L198.128923,60.056 C198.128923,61.1013386 198.614251,61.624 199.584923,61.624 Z M209.288308,55.176 L209.288308,63 L207.336308,63 L207.336308,61.8 C207.090973,62.2266688 206.76031,62.5546655 206.344308,62.784 C205.928306,63.0133345 205.458977,63.128 204.936308,63.128 C203.016298,63.128 202.056308,62.0506774 202.056308,59.896 L202.056308,55.176 L204.056308,55.176 L204.056308,59.912 C204.056308,60.4666694 204.168307,60.877332 204.392308,61.144 C204.616309,61.410668 204.968305,61.544 205.448308,61.544 C206.002977,61.544 206.448306,61.3600018 206.784308,60.992 C207.120309,60.6239982 207.288308,60.136003 207.288308,59.528 L207.288308,55.176 L209.288308,55.176 Z M221.279692,54.984 C222.16503,54.984 222.826357,55.2479974 223.263692,55.776 C223.701028,56.3040026 223.919692,57.1119946 223.919692,58.2 L223.919692,63 L221.919692,63 L221.919692,58.28 C221.919692,57.6826637 221.81836,57.2480014 221.615692,56.976 C221.413025,56.7039986 221.087695,56.568 220.639692,56.568 C220.106356,56.568 219.690361,56.7493315 219.391692,57.112 C219.093024,57.4746685 218.943692,57.9813301 218.943692,58.632 L218.943692,63 L216.943692,63 L216.943692,58.28 C216.943692,57.6826637 216.845027,57.2480014 216.647692,56.976 C216.450358,56.7039986 216.122361,56.568 215.663692,56.568 C215.141023,56.568 214.730361,56.7493315 214.431692,57.112 C214.133024,57.4746685 213.983692,57.9813301 213.983692,58.632 L213.983692,63 L211.983692,63 L211.983692,55.176 L213.935692,55.176 L213.935692,56.28 C214.17036,55.8533312 214.49569,55.5306678 214.911692,55.312 C215.327694,55.0933322 215.802356,54.984 216.335692,54.984 C217.519698,54.984 218.30369,55.4746618 218.687692,56.456 C218.933027,55.997331 219.285023,55.6373346 219.743692,55.376 C220.202361,55.1146654 220.714356,54.984 221.279692,54.984 Z M236.814462,63.144 C235.705123,63.144 234.737133,62.906669 233.910462,62.432 C233.083791,61.957331 232.449131,61.282671 232.006462,60.408 C231.563793,59.533329 231.342462,58.5146725 231.342462,57.352 C231.342462,56.1893275 231.563793,55.1733377 232.006462,54.304 C232.449131,53.4346623 233.083791,52.762669 233.910462,52.288 C234.737133,51.813331 235.705123,51.576 236.814462,51.576 C237.571799,51.576 238.286458,51.6933322 238.958462,51.928 C239.630465,52.1626678 240.195793,52.4933312 240.654462,52.92 L239.966462,54.424 C239.454459,54.0186646 238.947798,53.7226676 238.446462,53.536 C237.945126,53.3493324 237.411798,53.256 236.846462,53.256 C235.758456,53.256 234.918465,53.6079965 234.326462,54.312 C233.734459,55.0160035 233.438462,56.0293267 233.438462,57.352 C233.438462,58.68534 233.734459,59.7039965 234.326462,60.408 C234.918465,61.1120035 235.758456,61.464 236.846462,61.464 C237.411798,61.464 237.945126,61.3706676 238.446462,61.184 C238.947798,60.9973324 239.454459,60.7013354 239.966462,60.296 L240.654462,61.8 C240.195793,62.2266688 239.630465,62.5573322 238.958462,62.792 C238.286458,63.0266678 237.571799,63.144 236.814462,63.144 Z M250.005846,55.176 L250.005846,63 L248.053846,63 L248.053846,61.8 C247.808512,62.2266688 247.477849,62.5546655 247.061846,62.784 C246.645844,63.0133345 246.176516,63.128 245.653846,63.128 C243.733837,63.128 242.773846,62.0506774 242.773846,59.896 L242.773846,55.176 L244.773846,55.176 L244.773846,59.912 C244.773846,60.4666694 244.885845,60.877332 245.109846,61.144 C245.333848,61.410668 245.685844,61.544 246.165846,61.544 C246.720516,61.544 247.165845,61.3600018 247.501846,60.992 C247.837848,60.6239982 248.005846,60.136003 248.005846,59.528 L248.005846,55.176 L250.005846,55.176 Z M257.853231,56.648 L256.685231,56.76 C255.362558,56.8986674 254.701231,57.5706606 254.701231,58.776 L254.701231,63 L252.701231,63 L252.701231,55.176 L254.605231,55.176 L254.605231,56.552 C255.010567,55.6133286 255.847891,55.1013338 257.117231,55.016 L257.725231,54.968 L257.853231,56.648 Z M264.596616,56.648 L263.428616,56.76 C262.105943,56.8986674 261.444616,57.5706606 261.444616,58.776 L261.444616,63 L259.444616,63 L259.444616,55.176 L261.348616,55.176 L261.348616,56.552 C261.753951,55.6133286 262.591276,55.1013338 263.860616,55.016 L264.468616,54.968 L264.596616,56.648 Z M272.892001,59.448 L267.564001,59.448 C267.628001,60.173337 267.846665,60.7119982 268.220001,61.064 C268.593336,61.4160018 269.126664,61.592 269.820001,61.592 C270.684005,61.592 271.47333,61.3146694 272.188001,60.76 L272.764001,62.136 C272.401332,62.4346682 271.945337,62.6746658 271.396001,62.856 C270.846664,63.0373342 270.29467,63.128 269.740001,63.128 C268.459994,63.128 267.449338,62.765337 266.708001,62.04 C265.966664,61.314663 265.596001,60.322673 265.596001,59.064 C265.596001,58.263996 265.755999,57.5546698 266.076001,56.936 C266.396002,56.3173302 266.846664,55.837335 267.428001,55.496 C268.009337,55.154665 268.667997,54.984 269.404001,54.984 C270.481339,54.984 271.331997,55.3306632 271.956001,56.024 C272.580004,56.7173368 272.892001,57.6719939 272.892001,58.888 L272.892001,59.448 Z M269.452001,56.392 C268.918665,56.392 268.489336,56.562665 268.164001,56.904 C267.838666,57.245335 267.638668,57.7359968 267.564001,58.376 L271.180001,58.376 C271.158667,57.7253301 270.998669,57.2320017 270.700001,56.896 C270.401332,56.5599983 269.985337,56.392 269.452001,56.392 Z M279.683385,54.984 C280.622057,54.984 281.320716,55.250664 281.779385,55.784 C282.238054,56.317336 282.467385,57.1226613 282.467385,58.2 L282.467385,63 L280.467385,63 L280.467385,58.312 C280.467385,57.703997 280.35272,57.2613347 280.123385,56.984 C279.894051,56.7066653 279.534054,56.568 279.043385,56.568 C278.467382,56.568 278.006054,56.7493315 277.659385,57.112 C277.312717,57.4746685 277.139385,57.959997 277.139385,58.568 L277.139385,63 L275.139385,63 L275.139385,55.176 L277.091385,55.176 L277.091385,56.344 C277.358053,55.9066645 277.715383,55.5706678 278.163385,55.336 C278.611387,55.1013322 279.118049,54.984 279.683385,54.984 Z M288.68277,63.128 C287.861433,63.128 287.14944,62.9626683 286.54677,62.632 C285.9441,62.3013317 285.482772,61.832003 285.16277,61.224 C284.842768,60.615997 284.68277,59.9066707 284.68277,59.096 C284.68277,58.2853293 284.850768,57.5680031 285.18677,56.944 C285.522772,56.3199969 286.0001,55.837335 286.61877,55.496 C287.23744,55.154665 287.952099,54.984 288.76277,54.984 C289.317439,54.984 289.858767,55.0719991 290.38677,55.248 C290.914773,55.4240009 291.338768,55.6613318 291.65877,55.96 L291.08277,57.368 C290.752102,57.101332 290.402772,56.8986674 290.03477,56.76 C289.666768,56.6213326 289.301438,56.552 288.93877,56.552 C288.245433,56.552 287.706772,56.7679978 287.32277,57.2 C286.938768,57.6320022 286.74677,58.2533293 286.74677,59.064 C286.74677,59.864004 286.938768,60.4799978 287.32277,60.912 C287.706772,61.3440022 288.245433,61.56 288.93877,61.56 C289.301438,61.56 289.666768,61.4906674 290.03477,61.352 C290.402772,61.2133326 290.752102,61.010668 291.08277,60.744 L291.65877,62.136 C291.317435,62.4453349 290.880106,62.6879991 290.34677,62.864 C289.813434,63.0400009 289.258773,63.128 288.68277,63.128 Z M299.026155,55.192 L300.994155,55.192 L296.290155,65.88 L294.274155,65.88 L295.698155,62.696 L292.434155,55.192 L294.546155,55.192 L296.754155,60.712 L299.026155,55.192 Z" id="Post-QuantumCurrency" fill="#FFFFFF" fill-rule="nonzero"></path>
        </g>
    </g>
</svg>
